<svg width="34" height="29" viewBox="0 0 34 29" fill="none" xmlns="http://www.w3.org/2000/svg">
<path d="M5.17346 19.2414C3.945 19.2414 2.9008 18.8114 2.04087 17.9515C1.18094 17.0916 0.750977 16.0474 0.750977 14.8189C0.750977 13.5905 1.18094 12.5463 2.04087 11.6863C2.9008 10.8264 3.945 10.3964 5.17346 10.3964V7.44811C5.17346 6.63732 5.46215 5.94323 6.03954 5.36585C6.61692 4.78847 7.311 4.49978 8.12179 4.49978H12.5443C12.5443 3.27131 12.9742 2.22711 13.8342 1.36719C14.6941 0.507257 15.7383 0.0772934 16.9668 0.0772934C18.1952 0.0772934 19.2394 0.507257 20.0994 1.36719C20.9593 2.22711 21.3893 3.27131 21.3893 4.49978H25.8117C26.6225 4.49978 27.3166 4.78847 27.894 5.36585C28.4714 5.94323 28.7601 6.63732 28.7601 7.44811V10.3964C29.9885 10.3964 31.0327 10.8264 31.8927 11.6863C32.7526 12.5463 33.1826 13.5905 33.1826 14.8189C33.1826 16.0474 32.7526 17.0916 31.8927 17.9515C31.0327 18.8114 29.9885 19.2414 28.7601 19.2414V25.1381C28.7601 25.9488 28.4714 26.6429 27.894 27.2203C27.3166 27.7977 26.6225 28.0864 25.8117 28.0864H8.12179C7.311 28.0864 6.61692 27.7977 6.03954 27.2203C5.46215 26.6429 5.17346 25.9488 5.17346 25.1381V19.2414ZM12.5443 16.2931C13.1585 16.2931 13.6806 16.0781 14.1106 15.6481C14.5405 15.2182 14.7555 14.6961 14.7555 14.0818C14.7555 13.4676 14.5405 12.9455 14.1106 12.5155C13.6806 12.0856 13.1585 11.8706 12.5443 11.8706C11.93 11.8706 11.4079 12.0856 10.978 12.5155C10.548 12.9455 10.333 13.4676 10.333 14.0818C10.333 14.6961 10.548 15.2182 10.978 15.6481C11.4079 16.0781 11.93 16.2931 12.5443 16.2931ZM21.3893 16.2931C22.0035 16.2931 22.5256 16.0781 22.9556 15.6481C23.3855 15.2182 23.6005 14.6961 23.6005 14.0818C23.6005 13.4676 23.3855 12.9455 22.9556 12.5155C22.5256 12.0856 22.0035 11.8706 21.3893 11.8706C20.775 11.8706 20.2529 12.0856 19.823 12.5155C19.393 12.9455 19.178 13.4676 19.178 14.0818C19.178 14.6961 19.393 15.2182 19.823 15.6481C20.2529 16.0781 20.775 16.2931 21.3893 16.2931ZM11.0701 22.1897H22.8634V19.2414H11.0701V22.1897ZM8.12179 25.1381H25.8117V7.44811H8.12179V25.1381Z" fill="#5DE37A"/>
</svg>
