<svg width="47" height="35" viewBox="0 0 47 35" fill="none" xmlns="http://www.w3.org/2000/svg">
<path fill-rule="evenodd" clip-rule="evenodd" d="M23.4072 3.53017C15.5612 3.53017 9.30331 9.62413 9.30331 17.0173H6.35498C6.35498 7.88469 14.0462 0.58184 23.4072 0.58184C32.7683 0.58184 40.4595 7.88469 40.4595 17.0173H37.5112C37.5112 9.62413 31.2533 3.53017 23.4072 3.53017Z" fill="#09C9FA"/>
<path fill-rule="evenodd" clip-rule="evenodd" d="M3.56283 18.09V24.2114H6.45388V18.09H3.56283ZM2.08866 15.1416C1.27451 15.1416 0.614502 15.8016 0.614502 16.6158V25.6856C0.614502 26.4997 1.27451 27.1598 2.08866 27.1598H7.92804C8.7422 27.1598 9.4022 26.4997 9.4022 25.6856V16.6158C9.4022 15.8016 8.7422 15.1416 7.92804 15.1416H2.08866Z" fill="#09C9FA"/>
<path fill-rule="evenodd" clip-rule="evenodd" d="M40.41 17.7112V23.8327H43.301V17.7112H40.41ZM38.9358 14.7629C38.1217 14.7629 37.4617 15.4229 37.4617 16.2371V25.3069C37.4617 26.121 38.1217 26.781 38.9358 26.781H44.7752C45.5894 26.781 46.2494 26.121 46.2494 25.3069V16.2371C46.2494 15.4229 45.5894 14.7629 44.7752 14.7629H38.9358Z" fill="#09C9FA"/>
<path d="M11.6154 25.5732C10.3869 25.5732 9.34269 25.1432 8.48276 24.2833C7.62284 23.4234 7.19287 22.3792 7.19287 21.1507C7.19287 19.9222 7.62284 18.878 8.48276 18.0181C9.34269 17.1582 10.3869 16.7282 11.6154 16.7282V13.7799C11.6154 12.9691 11.904 12.275 12.4814 11.6976C13.0588 11.1202 13.7529 10.8316 14.5637 10.8316H18.9862C18.9862 9.60308 19.4161 8.55889 20.2761 7.69896C21.136 6.83903 22.1802 6.40907 23.4087 6.40907C24.6371 6.40907 25.6813 6.83903 26.5413 7.69896C27.4012 8.55889 27.8311 9.60308 27.8311 10.8316H32.2536C33.0644 10.8316 33.7585 11.1202 34.3359 11.6976C34.9133 12.275 35.202 12.9691 35.202 13.7799V16.7282C36.4304 16.7282 37.4746 17.1582 38.3346 18.0181C39.1945 18.878 39.6245 19.9222 39.6245 21.1507C39.6245 22.3792 39.1945 23.4234 38.3346 24.2833C37.4746 25.1432 36.4304 25.5732 35.202 25.5732V31.4698C35.202 32.2806 34.9133 32.9747 34.3359 33.5521C33.7585 34.1295 33.0644 34.4182 32.2536 34.4182H14.5637C13.7529 34.4182 13.0588 34.1295 12.4814 33.5521C11.904 32.9747 11.6154 32.2806 11.6154 31.4698V25.5732ZM18.9862 22.6249C19.6004 22.6249 20.1225 22.4099 20.5525 21.9799C20.9824 21.5499 21.1974 21.0278 21.1974 20.4136C21.1974 19.7994 20.9824 19.2773 20.5525 18.8473C20.1225 18.4173 19.6004 18.2024 18.9862 18.2024C18.3719 18.2024 17.8498 18.4173 17.4199 18.8473C16.9899 19.2773 16.7749 19.7994 16.7749 20.4136C16.7749 21.0278 16.9899 21.5499 17.4199 21.9799C17.8498 22.4099 18.3719 22.6249 18.9862 22.6249ZM27.8311 22.6249C28.4454 22.6249 28.9675 22.4099 29.3974 21.9799C29.8274 21.5499 30.0424 21.0278 30.0424 20.4136C30.0424 19.7994 29.8274 19.2773 29.3974 18.8473C28.9675 18.4173 28.4454 18.2024 27.8311 18.2024C27.2169 18.2024 26.6948 18.4173 26.2649 18.8473C25.8349 19.2773 25.6199 19.7994 25.6199 20.4136C25.6199 21.0278 25.8349 21.5499 26.2649 21.9799C26.6948 22.4099 27.2169 22.6249 27.8311 22.6249ZM17.512 28.5215H29.3053V25.5732H17.512V28.5215ZM14.5637 31.4698H32.2536V13.7799H14.5637V31.4698Z" fill="#09C9FA"/>
<path d="M14.146 18.1861H32.6724L32.6732 19.6052H31.5648V20.6172H30.4714V21.6293H29.7318V22.6413H26.0033V21.6293H25.2636V20.6172H24.1702V19.6052H22.6478V20.6172H21.5544V21.6293H20.8148V22.6413H17.0863V21.6293H16.3466V20.6172H15.2532V19.6052H14.145L14.146 18.1861Z" fill="#09C9FA"/>
</svg>
