<svg width="33" height="29" viewBox="0 0 33 29" fill="none" xmlns="http://www.w3.org/2000/svg">
<path d="M4.60511 19.2414C3.37664 19.2414 2.33244 18.8114 1.47251 17.9515C0.612581 17.0916 0.182617 16.0474 0.182617 14.8189C0.182617 13.5905 0.612581 12.5463 1.47251 11.6863C2.33244 10.8264 3.37664 10.3964 4.60511 10.3964V7.44811C4.60511 6.63732 4.8938 5.94323 5.47118 5.36585C6.04856 4.78847 6.74264 4.49978 7.55343 4.49978H11.9759C11.9759 3.27131 12.4059 2.22711 13.2658 1.36719C14.1257 0.507257 15.1699 0.0772934 16.3984 0.0772934C17.6269 0.0772934 18.6711 0.507257 19.531 1.36719C20.3909 2.22711 20.8209 3.27131 20.8209 4.49978H25.2434C26.0542 4.49978 26.7483 4.78847 27.3256 5.36585C27.903 5.94323 28.1917 6.63732 28.1917 7.44811V10.3964C29.4202 10.3964 30.4644 10.8264 31.3243 11.6863C32.1842 12.5463 32.6142 13.5905 32.6142 14.8189C32.6142 16.0474 32.1842 17.0916 31.3243 17.9515C30.4644 18.8114 29.4202 19.2414 28.1917 19.2414V25.1381C28.1917 25.9488 27.903 26.6429 27.3256 27.2203C26.7483 27.7977 26.0542 28.0864 25.2434 28.0864H7.55343C6.74264 28.0864 6.04856 27.7977 5.47118 27.2203C4.8938 26.6429 4.60511 25.9488 4.60511 25.1381V19.2414ZM11.9759 16.2931C12.5902 16.2931 13.1123 16.0781 13.5422 15.6481C13.9722 15.2182 14.1872 14.6961 14.1872 14.0818C14.1872 13.4676 13.9722 12.9455 13.5422 12.5155C13.1123 12.0856 12.5902 11.8706 11.9759 11.8706C11.3617 11.8706 10.8396 12.0856 10.4096 12.5155C9.97966 12.9455 9.76467 13.4676 9.76467 14.0818C9.76467 14.6961 9.97966 15.2182 10.4096 15.6481C10.8396 16.0781 11.3617 16.2931 11.9759 16.2931ZM20.8209 16.2931C21.4351 16.2931 21.9572 16.0781 22.3872 15.6481C22.8172 15.2182 23.0321 14.6961 23.0321 14.0818C23.0321 13.4676 22.8172 12.9455 22.3872 12.5155C21.9572 12.0856 21.4351 11.8706 20.8209 11.8706C20.2067 11.8706 19.6846 12.0856 19.2546 12.5155C18.8246 12.9455 18.6097 13.4676 18.6097 14.0818C18.6097 14.6961 18.8246 15.2182 19.2546 15.6481C19.6846 16.0781 20.2067 16.2931 20.8209 16.2931ZM10.5018 22.1897H22.2951V19.2414H10.5018V22.1897ZM7.55343 25.1381H25.2434V7.44811H7.55343V25.1381Z" fill="#5DE3C8"/>
<path d="M6.77072 11.8543H25.2971L25.298 13.2734H24.1896V14.2854H23.0962V15.2975H22.3565V16.3095H18.628V15.2975H17.8883V14.2854H16.795V13.2734H15.2726V14.2854H14.1792V15.2975H13.4395V16.3095H9.71102V15.2975H8.97134V14.2854H7.87797V13.2734H6.76978L6.77072 11.8543Z" fill="#5DE3C8"/>
</svg>
